<svg width="814" height="176" viewBox="0 0 814 176" fill="none" xmlns="http://www.w3.org/2000/svg">
<path d="M154.126 58.515C153.846 61.1643 153.218 64.2997 152.238 67.9168C149.946 75.9853 146.046 83.3055 140.542 89.873C135.034 96.4449 128.073 101.653 119.658 105.503C112.056 108.991 103.663 110.9 94.4741 111.236L118.579 78.6734H95.6695L108.99 31.3288L55.7155 95.2062H80.2589L75.7398 111.287H75.6022L64.1087 151.948H24L60.0024 24H116.008C129.617 24 139.652 27.0709 146.115 33.2169C152.578 39.3586 155.248 47.7927 154.121 58.515H154.126Z" fill="#01E46F"/>
<path d="M242.729 24.0473H196.476L113.682 152H155.782L167.564 132.663H210.205L211.069 152H253.345L242.729 24.0473ZM185.907 102.483L207.526 66.8846L209.031 102.483H185.907Z" fill="#01E46F"/>
<path d="M341.397 24.0258L308.276 69.3834L300.566 24.0258H254.67L275.502 113.12L264.559 151.974H304.672L315.611 113.12L386.567 24.0258H341.393H341.397Z" fill="#01E46F"/>
<path d="M476.285 33.2426C469.818 27.0966 459.726 24.0258 445.992 24.0258H386.371L350.373 151.978H390.482L403.424 106.075L414.694 151.978H458.776L444.763 103.004C454.459 100.114 462.603 95.3825 469.194 88.815C475.782 82.2474 480.314 74.6305 482.79 65.9512C483.526 63.547 484.05 60.8331 484.364 57.8182C485.439 47.5776 482.743 39.3844 476.28 33.2426H476.285ZM441.512 68.4802C440.398 72.2177 438.631 74.9574 436.223 76.7035C433.807 78.454 430.676 79.3228 426.824 79.3228H410.923L416.99 57.6375H432.895C436.141 57.6375 438.532 58.3902 440.067 59.8955C441.589 61.4051 442.217 63.4782 441.938 66.1319C441.834 67.0953 441.697 67.878 441.512 68.4802Z" fill="#01E46F"/>
<path d="M587.826 24.0258H541.568L458.776 151.978H500.875L512.661 132.641H555.298L556.162 151.978H598.442L587.826 24.0258ZM531 102.458L552.623 66.8587L554.128 102.458H531Z" fill="#01E46F"/>
<path d="M741.042 24.0258L691.96 101.012L685.394 24.0258H636.251L600.253 151.978H640.362L658.292 87.8214L660.059 151.978H694.389L731.952 88.3634L714.082 151.978H754.011L790.004 24.0258H741.042Z" fill="#01E46F"/>
</svg>
